# xmcd CD database file generated by Grip 3.0.3
# 
# Track frame offsets:
#       150
#       21912
#       45397
#       70492
#       92475
#       111460
#       136297
#       153675
#       185620
#       203385
#       213500
#       229212
#       247740
#       273065
# 
# Disc length: 3952 seconds
# 
# Revision: 2
# Processed by: cddbd v1.4PL0 Copyright (c) Steve Scherf et al.
# Submitted via: Grip 3.0.3
# 
DISCID=bf0f6e0e
DTITLE=Various Artist - Narada World: Disc 2
DYEAR=1997
DGENRE=New Age
TTITLE0=Douce Mousitomanie - Orion - CELTIC LEGACY
TTITLE1=Lucia - Oscar Lopez - GYPSY PASSION
TTITLE2=New Land - Bernardo Rubja - NEW LAND
TTITLE3=Ubi Caritas - Connie Dover - CELTIC SPIRIT
TTITLE4=Gravity - Jesse Cook - GRAVITY
TTITLE5=Kothbiro - Ayub Ogada - AFRICAN VOICES
TTITLE6=Mujeres y Ninos - Rumillajta - ALMA DEL SUR
TTITLE7=Kantico en Flor de Piedra - Tomas San Miguel - LEZAO
TTITLE8=Doce Morena - Nado Lauria - NOVO BRASIL
TTITLE9=Introduction: Precious Waters - R. Carlos Nakai - PRECIOUS WATERS
TTITLE10=Giant Step - Michael Pluznick - RHYTHM HARVEST
TTITLE11=Dancing to a Lot of Time - John Whelan - CELTIC REFLECTIONS
TTITLE12=Astrae - Vas - SUNYATA
TTITLE13=Inochi No Sharin (Wheel of Life) - Riley Lee - ORIENTAL SUNRISE
EXTD=Narada
EXTT0=Orion
EXTT1=Oscar Lopez
EXTT2=Bernardo Rubaja
EXTT3=Connie Dover
EXTT4=Jesse Cook
EXTT5=Ayub Ogada
EXTT6=Rumillajta
EXTT7=Tomas San Miguel
EXTT8=Nando Lauria
EXTT9=R. Carlos Nakai
EXTT10=Giant Step
EXTT11=John Whelan
EXTT12=Vas
EXTT13=Riley Lee
PLAYORDER=
